<svg width="337" height="336" xmlns="http://www.w3.org/2000/svg" viewBox="0 0 337.9 336.5">
  <path d="m 191.055 0.8225 c 7.05 0 12.22 0.47 13.16 0.94 c 0.94 0.47 2.82 0.47 4.23 0.94 c 3.29 0.47 16.92 4.7 22.56 7.05 c 7.52 2.82 23.5 11.28 29.61 15.04 c 3.29 2.35 6.11 3.76 6.58 4.23 c 0.47 0 0.94 0.47 0.94 0.47 c 0 0.47 1.41 1.41 2.82 2.35 c 7.99 6.11 12.22 9.87 20.21 18.33 c 4.7 5.17 9.87 10.81 11.28 12.22 c 18.33 24.44 29.61 49.82 33.84 76.61 c 2.82 18.8 2.82 41.36 -0.47 58.75 c -0.94 5.64 -4.23 18.8 -5.17 21.62 c -0.47 1.41 -1.41 3.76 -1.88 5.17 c -0.94 4.7 -10.34 24.44 -12.22 25.85 c -0.94 0.94 -0.94 0.94 -3.76 -3.76 c -3.29 -6.11 -6.58 -11.75 -7.52 -14.1 c -0.47 -0.94 -1.41 -2.35 -2.35 -3.29 c -0.47 -0.47 -3.29 -5.64 -6.58 -11.28 c -2.82 -5.64 -6.58 -11.75 -7.52 -14.1 c -2.82 -4.23 -9.87 -16.92 -11.28 -20.21 c -0.94 -1.88 -1.41 -3.76 -1.41 -7.52 l 0 -5.17 l 1.88 -3.29 c 0.94 -1.88 2.35 -4.7 3.29 -5.64 c 7.05 -8.93 10.81 -15.51 13.16 -23.5 c 0.94 -4.7 0.94 -15.51 -0.47 -20.21 c -2.82 -10.81 -12.22 -23.97 -25.38 -36.66 c -7.52 -7.52 -13.16 -12.22 -19.74 -15.98 c -4.23 -2.35 -4.23 -2.35 -7.52 -2.35 c -5.64 0.47 -15.04 3.76 -26.79 9.4 c -11.28 5.64 -21.15 12.69 -30.08 21.62 l -4.23 4.23 l 0.47 6.11 c 0 11.75 3.29 29.14 7.52 40.89 c 4.7 11.75 5.64 13.63 10.34 20.21 c 5.64 7.52 12.22 12.22 21.62 15.51 l 5.17 1.41 l 8.93 0 c 7.52 0 8.93 0 11.28 -0.94 c 1.88 -0.47 3.76 -0.94 7.05 -0.94 c 4.7 0 5.17 0.47 7.99 1.88 c 3.29 1.41 7.99 5.64 10.34 8.93 c 1.88 1.88 9.4 15.04 19.27 32.43 c 2.82 5.17 7.52 13.16 10.34 18.33 c 2.82 5.17 6.11 11.28 7.52 13.63 c 2.35 4.23 2.35 4.7 1.88 6.11 c -1.88 4.23 -19.27 23.97 -27.26 31.49 c -7.99 7.05 -11.28 9.4 -23.5 17.39 c -26.79 17.39 -61.1 26.79 -94.47 25.85 c -9.87 -0.47 -11.75 -0.47 -21.62 -1.88 c -17.39 -2.82 -39.01 -9.87 -54.99 -18.8 c -7.52 -4.23 -14.1 -8.46 -16.92 -10.34 c -1.41 -1.41 -2.82 -2.35 -3.76 -3.29 c -7.52 -5.17 -16.45 -13.16 -24.91 -23.03 c -3.76 -4.23 -8.46 -10.34 -10.34 -12.69 c -1.41 -2.82 -3.76 -5.64 -4.7 -7.05 c -0.94 -0.94 -1.41 -2.82 -1.41 -3.29 c 0 -0.47 2.82 -5.64 6.11 -11.28 c 3.29 -6.11 7.05 -12.69 7.99 -15.04 c 1.41 -2.35 2.82 -4.7 3.29 -5.17 c 0.94 -1.41 12.22 -21.15 15.98 -27.73 c 6.58 -12.22 14.57 -17.86 23.97 -16.92 c 1.41 0 5.64 0.94 8.46 0.94 c 9.4 1.88 20.68 0.47 27.26 -2.35 c 6.58 -3.29 14.1 -10.34 18.33 -16.45 c 3.29 -4.7 7.05 -13.16 9.87 -21.62 c 1.88 -6.11 2.82 -9.4 4.7 -17.39 c 0.94 -4.7 1.88 -13.63 1.88 -19.74 l 0 -6.58 l -1.88 -2.35 c -5.17 -5.17 -18.33 -15.51 -23.97 -18.33 c -0.94 -0.47 -2.35 -1.41 -2.82 -1.88 c -1.41 -0.94 -12.22 -6.11 -16.45 -7.99 c -4.7 -1.41 -14.1 -4.23 -16.45 -4.7 c -3.76 -0.47 -15.04 7.52 -26.32 17.86 c -11.75 11.28 -22.56 26.79 -24.91 35.25 c -2.35 6.58 -1.88 19.74 0 25.85 c 2.35 7.05 6.11 13.16 13.63 22.09 c 1.41 1.88 2.82 5.17 3.29 7.99 c 0.47 3.29 -0.47 9.87 -1.88 13.16 c -1.41 2.82 -6.58 13.16 -8.46 15.51 c -0.94 1.41 -1.88 3.29 -2.82 4.7 c -4.7 8.46 -7.52 13.63 -8.93 15.51 c -1.41 2.82 -6.11 11.28 -10.81 19.74 c -1.88 2.82 -3.29 5.64 -3.76 6.11 l -0.94 0.94 l -0.94 -0.94 c -2.35 -2.82 -10.81 -24.91 -13.16 -33.84 c -4.7 -16.45 -6.58 -36.66 -5.64 -51.7 c 0.94 -17.39 3.76 -31.49 7.99 -45.59 c 5.64 -16.45 15.04 -34.78 24.91 -47.94 c 1.41 -1.88 4.23 -5.17 5.64 -7.05 c 3.29 -4.23 17.39 -18.8 23.03 -23.5 c 11.28 -8.46 21.62 -15.04 33.84 -21.15 c 11.75 -5.64 19.74 -8.46 32.9 -11.75 c 7.05 -1.88 7.52 -1.88 17.86 -2.35 c 12.22 -0.47 27.26 -0.47 44.18 0 z m -119.85 221.37 c 0 1.88 1.88 7.99 4.23 15.51 c 1.88 5.64 9.87 19.74 14.1 24.91 c 3.76 4.7 10.81 12.22 15.98 16.92 c 6.11 5.64 9.4 7.52 21.62 13.63 c 3.29 1.88 16.92 6.11 23.03 7.05 c 4.23 0.47 7.99 0.47 16.45 0.47 c 13.16 0 15.98 0 26.79 -2.82 c 6.11 -1.88 8.46 -2.35 15.51 -6.11 c 10.34 -5.17 15.51 -8.46 22.56 -15.04 c 9.4 -8.93 18.33 -20.21 23.03 -29.61 c 5.17 -10.34 9.87 -23.5 8.93 -25.85 c -0.94 -2.35 -1.88 -0.94 -6.58 9.4 c -4.7 11.28 -9.87 19.74 -17.86 28.2 c -5.17 5.17 -12.69 11.75 -16.92 14.1 c -8.46 4.7 -19.74 9.87 -24.91 10.81 c -1.41 0.47 -3.76 0.94 -5.17 0.94 c -6.58 2.35 -17.39 2.82 -29.14 2.82 c -5.17 -0.47 -10.81 -0.47 -11.75 -0.94 c -1.41 0 -3.76 -0.47 -5.64 -0.94 c -4.7 -0.94 -15.04 -3.76 -19.74 -6.11 c -10.81 -4.23 -18.8 -9.87 -27.26 -18.8 c -9.87 -9.87 -17.39 -20.68 -22.56 -34.31 c -2.35 -5.64 -3.29 -7.05 -4.23 -6.11 c 0 0.47 -0.47 0.94 -0.47 1.88 z" fill="#E51D33"/>
</svg>